<svg xmlns="http://www.w3.org/2000/svg" viewBox="0 0 100 100" role="img" aria-label="CCR"><circle cx="50" cy="50" r="50" fill="#05070c"/><circle cx="50" cy="50" r="47" fill="none" stroke="#8fd0ff" stroke-width="3.5"/><rect x="12" y="32" width="24" height="7.5" fill="#8fd0ff"/><rect x="12" y="60.5" width="24" height="7.5" fill="#8fd0ff"/><rect x="12" y="32" width="7.5" height="14.4" fill="#8fd0ff"/><rect x="12" y="53.6" width="7.5" height="14.4" fill="#8fd0ff"/><rect x="38" y="32" width="24" height="7.5" fill="#8fd0ff"/><rect x="38" y="60.5" width="24" height="7.5" fill="#8fd0ff"/><rect x="38" y="32" width="7.5" height="14.4" fill="#8fd0ff"/><rect x="38" y="53.6" width="7.5" height="14.4" fill="#8fd0ff"/><rect x="64" y="32" width="24" height="7.5" fill="#8fd0ff"/><rect x="64" y="32" width="7.5" height="36" fill="#8fd0ff"/><rect x="80.5" y="32" width="7.5" height="18.0" fill="#8fd0ff"/><rect x="64" y="42.5" width="24" height="7.5" fill="#8fd0ff"/><polygon points="73.6,50.0 81.1,50.0 88,68 80.5,68" fill="#8fd0ff"/></svg>